# xmcd
# Track frame offsets:
# 150
# 10750
# 22809
# 37492
# 51894
# 68771
# 87459
# 102690
# 117503
# 128546
# 139500
# 153637
# 165351
# 182263
# 198612
#
# Disc length: 2844 seconds
# Revision: 0
# Processed by: cddbd v1.5.1PL0 Copyright (c) Steve Scherf et al.
# Submitted via: VisiTrax 2.9.10.228 - For more info visit www.synapsa.com
#
DISCID=c80b1a0f
DTITLE=West, Dottie - CB90085
DYEAR=1900
DGENRE=Karaoke
TTITLE0=West, Dottie - Country Sunshine
TTITLE1=West, Dottie - Here Comes My Baby
TTITLE2=West, Dottie - Last Time I Saw Him
TTITLE3=West, Dottie - Lesson In Leavin', A
TTITLE4=West, Dottie - Are You Happy Baby
TTITLE5=West, Dottie - You're Not Easy To Forget
TTITLE6=West, Dottie - When It's Just You And Me
TTITLE7=West, Dottie - Every Word I Write
TTITLE8=West, Dottie - Tonight You Belong To Me
TTITLE9=West, Dottie - Come See Me And Come Lonely
TTITLE10=West, Dottie - Reaching Out To Hold You
TTITLE11=West, Dottie and Kenny - Anyone Who Isn't Me Tonight
TTITLE12=West, Dottie and Kenny - Til I Make It On My Own
TTITLE13=West, Dottie and Kenny - All I Ever Need Is You
TTITLE14=West, Dottie and Kenny - What Are We Doin' In Love
EXTD=
EXTT0=
EXTT1=
EXTT2=
EXTT3=
EXTT4=
EXTT5=
EXTT6=
EXTT7=
EXTT8=
EXTT9=
EXTT10=
EXTT11=
EXTT12=
EXTT13=
EXTT14=
PLAYORDER=
